<svg xmlns="http://www.w3.org/2000/svg" viewBox="0 0 512 512"><path d="m0 0h512v512h-512z" fill="#d2000f"/><path d="m319.757 354.451s-30.633 15.012-73.009 8.492c-38.801-5.985-54.78-30.647-54.78-30.647l8.469-6.524s13.052 22.168 51.527 27.389c38.459 5.212 64.19-9.176 64.19-9.176zm70.596-282.449c-12.183 0-68.717 58.083-108.342 100.47h-66.667c-23.271-31.251-52.784-68.482-61.33-68.482-10.852 0-19.027 60.005-22.58 91.587-11.226 11.378-19.626 28.335-19.626 53.706v108.905s0 76.812 76.812 76.812h134.321s76.816 0 76.816-76.812v-106.473h.021s-.029-119.213 0-120.458c.733-30.542-1.127-59.257-9.417-59.257" fill="#fff"/></svg>